<mxfile host="app.diagrams.net" modified="2022-02-15T07:44:46.232Z" agent="5.0 (Windows NT 10.0; Win64; x64) AppleWebKit/537.36 (KHTML, like Gecko) Chrome/98.0.4758.87 Safari/537.36" etag="mILbpUXbyzFt63QCkux8" version="16.5.6" type="github">
  <diagram id="C5RBs43oDa-KdzZeNtuy" name="Page-1">
    <mxGraphModel dx="2155" dy="1315" grid="1" gridSize="10" guides="1" tooltips="1" connect="1" arrows="1" fold="1" page="1" pageScale="1" pageWidth="827" pageHeight="1169" math="0" shadow="0">
      <root>
        <mxCell id="WIyWlLk6GJQsqaUBKTNV-0" />
        <mxCell id="WIyWlLk6GJQsqaUBKTNV-1" parent="WIyWlLk6GJQsqaUBKTNV-0" />
        <mxCell id="xBi58bWf_4wJIjOzThA2-4" style="edgeStyle=orthogonalEdgeStyle;rounded=0;orthogonalLoop=1;jettySize=auto;html=1;exitX=0.5;exitY=1;exitDx=0;exitDy=0;entryX=0.5;entryY=0;entryDx=0;entryDy=0;" edge="1" parent="WIyWlLk6GJQsqaUBKTNV-1" source="xBi58bWf_4wJIjOzThA2-0" target="xBi58bWf_4wJIjOzThA2-3">
          <mxGeometry relative="1" as="geometry" />
        </mxCell>
        <mxCell id="xBi58bWf_4wJIjOzThA2-0" value="Run&lt;br&gt;&amp;nbsp;Packet Sniffier.py&amp;nbsp;" style="rounded=1;whiteSpace=wrap;html=1;fontSize=12;glass=0;strokeWidth=1;shadow=0;" vertex="1" parent="WIyWlLk6GJQsqaUBKTNV-1">
          <mxGeometry x="105" y="40" width="120" height="40" as="geometry" />
        </mxCell>
        <mxCell id="xBi58bWf_4wJIjOzThA2-1" value="Try to&lt;br&gt;&amp;nbsp;Login into target website" style="rounded=1;whiteSpace=wrap;html=1;fontSize=12;glass=0;strokeWidth=1;shadow=0;" vertex="1" parent="WIyWlLk6GJQsqaUBKTNV-1">
          <mxGeometry x="500" y="40" width="270" height="570" as="geometry" />
        </mxCell>
        <mxCell id="xBi58bWf_4wJIjOzThA2-3" value="&amp;nbsp; Checking for the sensitive&amp;nbsp; information exposure&amp;nbsp;&lt;br&gt;[Script Running in the background]&amp;nbsp;" style="rhombus;whiteSpace=wrap;html=1;shadow=0;fontFamily=Helvetica;fontSize=12;align=center;strokeWidth=1;spacing=6;spacingTop=-4;" vertex="1" parent="WIyWlLk6GJQsqaUBKTNV-1">
          <mxGeometry x="70" y="160" width="190" height="200" as="geometry" />
        </mxCell>
      </root>
    </mxGraphModel>
  </diagram>
</mxfile>
